<?xml version="1.0" encoding="UTF-8"?>
<!DOCTYPE svg PUBLIC "-//W3C//DTD SVG 1.1//EN" "http://www.w3.org/Graphics/SVG/1.1/DTD/svg11.dtd">
<!-- Creator: CorelDRAW X7 -->
<svg xmlns="http://www.w3.org/2000/svg" xml:space="preserve" width="5.86912in" height="5.51126in" version="1.1" style="shape-rendering:geometricPrecision; text-rendering:geometricPrecision; image-rendering:optimizeQuality; fill-rule:evenodd; clip-rule:evenodd"
viewBox="0 0 3342 3138"
 xmlns:xlink="http://www.w3.org/1999/xlink">
 <defs>
  <style type="text/css">
   <![CDATA[
    .fil0 {fill:#373435}
    .fil2 {fill:#EF4E36}
    .fil1 {fill:white}
   ]]>
  </style>
 </defs>
 <g id="Layer_x0020_1">
  <metadata id="CorelCorpID_0Corel-Layer"/>
  <polygon class="fil0" points="0,3138 3342,3138 3342,0 0,0 "/>
  <g id="_290416272">
   <path class="fil1" d="M878 733c-85,15 -112,128 -35,177 32,20 74,14 112,14 41,0 82,0 123,0 81,0 165,-3 246,1 39,1 70,22 85,55 23,51 -4,97 -27,116 -31,25 -69,20 -108,20l-983 0c-43,0 -72,-2 -103,29 -41,42 -37,121 25,154 19,9 34,10 55,10l1230 0c43,0 115,-5 135,72 7,27 -1,55 -10,71 -21,34 -46,49 -89,49 -41,0 -82,0 -123,0 -37,0 -80,-6 -111,16 -23,16 -55,57 -38,110 12,36 43,61 77,65 36,5 85,1 123,1 82,0 164,0 247,0 38,0 83,3 121,0 35,-3 68,-30 69,-80 1,-69 -3,-212 -1,-266 2,-33 31,-11 42,-4 59,35 116,69 174,103 38,23 145,83 174,107 44,38 97,106 105,205 4,49 1,124 1,176 0,66 -16,95 -41,121 -22,25 -57,41 -93,42 -57,2 -129,-53 -187,-87 -30,-17 -59,-36 -88,-52 -16,-9 -76,-42 -84,-55 -6,-12 -5,-32 -25,-52 -13,-12 -29,-20 -47,-22 -40,-2 -84,0 -124,0 -327,0 -655,0 -982,0 -34,0 -88,-5 -118,8 -27,12 -59,46 -55,97 3,44 36,74 66,84 27,8 202,4 243,4 164,0 327,0 491,0 31,0 92,-5 119,5 29,10 62,41 63,87 1,49 -31,82 -59,93 -29,12 -85,7 -118,7 -41,0 -81,0 -122,0 -43,0 -73,1 -100,34 -27,32 -29,86 -4,120 26,33 54,38 97,38l1230 0c40,0 65,-20 96,-39 29,-18 59,-35 88,-52 116,-69 232,-139 348,-208 29,-16 156,-89 173,-106 12,-13 19,-28 19,-60l0 -628c0,-181 13,-162 -91,-223 -117,-69 -233,-138 -350,-208 -58,-34 -117,-68 -174,-103 -20,-13 -68,-44 -90,-47 -38,-3 -84,0 -123,0 -451,0 -902,0 -1353,0 -35,0 -89,-4 -121,1zm1216 386c-15,3 -26,12 -39,20l-57 33c-32,19 5,35 22,45 51,30 100,59 151,90 83,49 180,104 262,155 45,28 67,2 121,-32 9,-5 34,-14 31,-29 -2,-10 -27,-21 -35,-26 -50,-30 -100,-59 -151,-89l-224 -134c-22,-13 -55,-39 -81,-33zm362 -216c-14,3 -61,33 -77,42 -9,6 -34,14 -29,31 2,9 27,21 35,26 50,29 101,59 151,89l224 134c83,50 71,41 159,-12 7,-4 34,-14 29,-29 -3,-9 -26,-20 -35,-25 -50,-31 -100,-59 -151,-90 -49,-30 -100,-61 -150,-89 -24,-14 -49,-30 -74,-44 -23,-13 -55,-40 -82,-33zm447 494c0,89 0,178 0,266 0,25 2,43 -9,55 -9,10 -142,85 -164,98 -71,44 -58,11 -58,-148 0,-40 2,-95 -1,-133l-118 70c-17,14 -14,32 -14,65 0,110 0,219 0,329 0,27 -3,145 4,158 20,39 59,6 83,-7 109,-63 213,-131 321,-191 14,-8 72,-41 80,-50 11,-14 8,-41 8,-69l0 -412c0,-25 3,-56 -7,-70 -10,-16 -30,-18 -46,-9 -13,7 -73,41 -79,48z"/>
   <path class="fil2" d="M232 735c-35,9 -73,43 -71,99 2,50 42,83 77,89 22,4 257,3 275,-1 98,-23 95,-172 -4,-188 -22,-4 -260,-4 -277,1z"/>
   <path class="fil1" d="M800 1693l233 0c126,0 130,-192 -3,-192l-228 0c-25,0 -46,6 -65,23 -14,13 -32,37 -32,72 -1,63 52,97 95,97z"/>
   <path class="fil2" d="M745 2215c-77,16 -102,117 -43,168 29,25 59,23 96,23 32,0 81,4 111,-2 70,-13 106,-111 43,-167 -29,-26 -57,-23 -96,-23 -32,0 -81,-4 -111,1z"/>
   <path class="fil2" d="M282 1502c-71,14 -110,105 -48,166 26,26 57,25 94,25 33,0 80,4 112,-1 34,-5 59,-28 71,-59 19,-47 -3,-89 -23,-107 -29,-26 -56,-25 -95,-25 -32,0 -81,-4 -111,1z"/>
  </g>
 </g>
</svg>
