<?xml version="1.0" encoding="UTF-8"?>
<!DOCTYPE svg PUBLIC "-//W3C//DTD SVG 1.1//EN" "http://www.w3.org/Graphics/SVG/1.1/DTD/svg11.dtd">
<!-- Creator: CorelDRAW X7 -->
<svg xmlns="http://www.w3.org/2000/svg" xml:space="preserve" width="50mm" height="50mm" version="1.1" shape-rendering="geometricPrecision" text-rendering="geometricPrecision" image-rendering="optimizeQuality" fill-rule="evenodd" clip-rule="evenodd"
viewBox="0 0 5000 5000"
 xmlns:xlink="http://www.w3.org/1999/xlink">
 <g id="Layer_x0020_1">
  <metadata id="CorelCorpID_0Corel-Layer"/>
  <g id="_542533672">
   <path fill="white" d="M2745 2247c21,-7 32,6 48,16 83,51 351,202 389,249 94,118 81,192 81,348 0,50 4,82 -18,123 -16,30 -40,54 -74,68 -84,34 -151,-25 -206,-58 -24,-14 -208,-122 -218,-133 -33,-41 10,-84 -136,-84 -378,1 -756,0 -1134,0 -47,0 -90,-4 -123,20 -23,17 -46,59 -37,105 6,34 36,65 66,75 36,12 722,5 850,5 170,0 146,201 18,205 -56,2 -241,-7 -279,6 -73,26 -86,140 -20,181 51,32 191,18 262,18 284,0 568,0 852,0 325,0 229,39 463,-101l531 -320c36,-27 34,-53 34,-106l0 -715c0,-118 -6,-107 -111,-169 -88,-53 -599,-364 -623,-370 -30,-8 -1436,-3 -1555,-3 -104,0 -184,-20 -220,63 -16,39 -2,83 17,108 24,30 60,34 111,34 95,0 189,0 283,0 100,0 192,-20 227,60 16,37 6,80 -14,108 -21,27 -55,37 -104,37 -142,-1 -1097,-6 -1130,4 -79,23 -93,133 -29,181 44,34 194,20 262,20l1134 0c52,0 78,10 100,41 23,30 27,75 7,112 -59,108 -278,9 -349,74 -24,22 -45,60 -33,108 23,89 114,75 207,75 95,0 191,0 287,0 105,0 180,16 179,-105 0,-46 -7,-254 5,-280zm199 -227c-23,7 -60,33 -81,45 -51,30 -33,37 9,60 118,67 274,166 398,240 84,50 68,42 165,-15 52,-31 33,-34 -7,-57l-398 -240c-22,-13 -56,-41 -86,-33zm858 295c-4,58 12,319 -12,344l-167 101c-23,14 -35,25 -62,15 -11,-40 -5,-250 -5,-310 -15,3 -76,43 -93,53 -55,33 -46,27 -46,105l0 456c0,62 17,84 70,52l379 -228c94,-56 74,-28 74,-230 0,-102 0,-203 0,-305 0,-40 12,-115 -39,-109 -12,2 -87,47 -99,56zm-481 -523c-26,11 -54,31 -79,46 -51,29 -18,39 17,59l396 238c87,52 67,40 168,-18 47,-27 28,-32 -15,-58l-396 -237c-25,-15 -57,-44 -91,-30z"/>
   <path fill="red" d="M3802 2315c-4,58 12,319 -12,344l-167 101c-23,14 -35,25 -62,15 -11,-40 -5,-250 -5,-310 -15,3 -76,43 -93,53 -55,33 -46,27 -46,105l0 456c0,62 17,84 70,52l379 -228c94,-56 74,-28 74,-230 0,-102 0,-203 0,-305 0,-40 12,-115 -39,-109 -12,2 -87,47 -99,56z"/>
   <path fill="red" d="M983 1609c-96,21 -103,155 -21,194 31,14 277,16 316,6 90,-21 101,-151 20,-192 -29,-14 -275,-17 -315,-8z"/>
   <path fill="black" d="M1552 2431c-39,13 -70,41 -73,92 -3,48 29,89 64,102 28,10 285,11 315,2 86,-28 93,-156 8,-193 -28,-12 -283,-12 -314,-3z"/>
   <path fill="red" d="M1512 3191c-67,21 -98,111 -43,168 29,30 47,32 99,32 33,0 104,4 132,-3 72,-18 99,-112 47,-170 -23,-27 -55,-32 -102,-32 -34,0 -104,-5 -133,5z"/>
   <path fill="#FEFEFE" d="M1023 2431c-38,11 -56,28 -68,66 -13,40 1,79 22,102 24,27 51,33 99,33 33,-1 105,3 132,-4 89,-22 127,-202 -55,-202 -38,0 -96,-5 -130,5z"/>
  </g>
 </g>
</svg>
