<?xml version="1.0" encoding="UTF-8"?>
<!DOCTYPE svg PUBLIC "-//W3C//DTD SVG 1.1//EN" "http://www.w3.org/Graphics/SVG/1.1/DTD/svg11.dtd">
<!-- Creator: CorelDRAW X7 -->
<svg xmlns="http://www.w3.org/2000/svg" xml:space="preserve" width="8.26772in" height="11.6929in" version="1.1" style="shape-rendering:geometricPrecision; text-rendering:geometricPrecision; image-rendering:optimizeQuality; fill-rule:evenodd; clip-rule:evenodd"
viewBox="0 0 8268 11693"
 xmlns:xlink="http://www.w3.org/1999/xlink">
 <defs>
  <style type="text/css">
   <![CDATA[
    .fil0 {fill:#373435}
    .fil1 {fill:#EF4E36}
   ]]>
  </style>
 </defs>
 <g id="Layer_x0020_1">
  <metadata id="CorelCorpID_0Corel-Layer"/>
  <path class="fil0" d="M2386 228c-327,57 -434,504 -135,699 123,79 287,56 431,56 159,0 318,0 477,0 312,0 636,-12 947,0 152,6 272,89 330,220 89,199 -17,381 -106,457 -119,101 -265,81 -415,81l-3795 0c-168,0 -278,-11 -400,114 -158,163 -142,477 97,605 72,39 132,40 214,40l4749 0c165,0 443,-19 520,284 27,107 -2,219 -38,281 -80,136 -175,193 -342,193 -159,0 -318,0 -477,0 -143,0 -307,-23 -427,62 -91,64 -213,225 -146,438 44,139 165,238 297,256 139,19 329,4 473,4 318,0 636,0 953,0 150,0 322,12 469,-2 134,-12 262,-118 265,-315 4,-272 -10,-835 -1,-1051 6,-130 119,-42 162,-16 227,138 445,273 672,409 147,88 557,326 669,423 173,149 374,416 406,806 16,196 4,489 4,696 0,262 -59,374 -156,480 -87,95 -223,159 -360,164 -222,8 -498,-211 -723,-344 -115,-68 -226,-141 -339,-206 -64,-37 -295,-167 -323,-218 -25,-44 -21,-126 -99,-203 -48,-48 -112,-80 -183,-85 -152,-11 -321,-1 -475,-1 -1265,0 -2530,0 -3795,0 -131,0 -338,-20 -454,31 -104,47 -228,183 -215,382 12,173 142,293 257,330 103,33 780,16 939,16 632,0 1263,0 1895,0 120,0 354,-18 459,20 114,42 240,164 244,345 5,193 -118,322 -227,366 -112,46 -329,27 -457,27 -157,0 -314,0 -471,0 -166,0 -281,5 -387,135 -104,128 -113,340 -13,473 100,132 208,152 375,152l4748 0c154,0 251,-78 373,-156 111,-71 225,-137 338,-206 446,-271 895,-547 1345,-817 111,-67 602,-352 665,-420 46,-50 76,-111 76,-237l0 -2478c0,-716 49,-640 -354,-883 -450,-270 -898,-544 -1349,-820 -224,-136 -451,-266 -673,-408 -78,-49 -261,-174 -346,-182 -146,-14 -325,-1 -475,-1 -1742,0 -3484,0 -5225,0 -135,0 -344,-18 -468,4zm4697 1521c-60,13 -104,50 -154,79l-217 132c-126,75 19,138 84,177 197,118 387,235 583,354 320,195 693,412 1011,615 173,110 257,5 469,-127 32,-20 131,-57 120,-116 -7,-37 -104,-81 -136,-101 -192,-121 -388,-235 -582,-354l-867 -526c-87,-51 -211,-156 -311,-133zm1398 -852c-54,13 -236,129 -297,169 -35,22 -132,54 -115,122 9,33 107,83 137,101 194,115 390,234 582,353l867 527c318,197 272,161 612,-46 27,-16 132,-57 113,-117 -11,-36 -102,-76 -137,-98 -192,-123 -385,-234 -582,-355 -190,-116 -386,-240 -578,-350 -95,-55 -192,-118 -289,-176 -86,-51 -211,-155 -313,-130zm1724 1953c0,350 -1,699 0,1049 0,99 9,167 -35,217 -35,40 -547,333 -631,386 -276,172 -227,44 -227,-584 0,-157 8,-377 -2,-527l-458 278c-65,54 -51,126 -51,258 0,432 0,864 0,1296 0,107 -12,573 15,626 75,153 227,25 319,-29 420,-246 825,-515 1241,-754 52,-30 279,-161 307,-196 45,-57 31,-162 31,-271l0 -1627c0,-100 13,-221 -25,-279 -41,-63 -116,-70 -177,-35 -50,29 -283,164 -307,192z"/>
  <path class="fil1" d="M-108 235c-135,37 -285,169 -275,391 8,195 163,327 299,351 82,15 990,13 1061,-4 378,-90 364,-678 -18,-744 -85,-14 -1001,-12 -1067,6z"/>
  <path class="fil0" d="M2085 4018l901 0c484,0 500,-760 -12,-760l-883 0c-97,0 -175,25 -248,92 -56,49 -125,147 -127,284 -4,250 202,384 369,384z"/>
  <path class="fil1" d="M1873 6079c-300,60 -395,460 -166,662 109,97 227,91 371,91 124,0 311,16 427,-7 269,-54 409,-439 167,-659 -114,-104 -222,-94 -371,-94 -123,0 -314,-16 -428,7z"/>
  <path class="fil1" d="M85 3264c-277,52 -426,413 -187,654 102,102 222,100 362,100 129,0 310,15 433,-5 132,-22 229,-110 276,-232 72,-187 -11,-351 -90,-424 -113,-104 -215,-99 -365,-99 -124,0 -314,-16 -429,6z"/>
 </g>
</svg>
